<svg width="18" height="14" viewBox="0 0 18 14" fill="none" xmlns="http://www.w3.org/2000/svg">
<g id="mastercard-2 1" clip-path="url(#clip0_2775_6044)">
<path id="Vector" d="M17.6454 13.8101V13.8461H17.679C17.6853 13.8462 17.6915 13.8446 17.697 13.8415C17.6992 13.84 17.7009 13.8379 17.7021 13.8355C17.7033 13.8331 17.7038 13.8304 17.7037 13.8277C17.7038 13.8251 17.7033 13.8225 17.7021 13.8202C17.7009 13.8178 17.6991 13.8158 17.697 13.8143C17.6915 13.8111 17.6853 13.8095 17.679 13.8097H17.6454V13.8101ZM17.6793 13.7846C17.6937 13.7838 17.708 13.7879 17.7197 13.7963C17.7243 13.8002 17.7281 13.8051 17.7305 13.8106C17.733 13.8161 17.7341 13.8221 17.7338 13.8282C17.734 13.8334 17.7331 13.8386 17.7311 13.8434C17.7292 13.8482 17.7262 13.8526 17.7224 13.8562C17.7134 13.864 17.7021 13.8687 17.6902 13.8696L17.7352 13.9209H17.7006L17.6592 13.8699H17.6458V13.9209H17.6168V13.7847H17.6798L17.6793 13.7846ZM17.6703 13.9678C17.6855 13.968 17.7006 13.9649 17.7145 13.9588C17.728 13.9531 17.7402 13.9448 17.7505 13.9344C17.7609 13.9241 17.7692 13.9119 17.7749 13.8985C17.7867 13.8699 17.7867 13.8379 17.7749 13.8094C17.7691 13.796 17.7608 13.7838 17.7505 13.7734C17.7402 13.7631 17.7279 13.7548 17.7145 13.749C17.7005 13.7433 17.6855 13.7404 17.6703 13.7406C17.6549 13.7404 17.6396 13.7433 17.6253 13.749C17.6116 13.7547 17.5991 13.763 17.5885 13.7734C17.5726 13.7897 17.5618 13.8104 17.5576 13.8328C17.5533 13.8552 17.5557 13.8783 17.5645 13.8994C17.57 13.9129 17.5781 13.9251 17.5885 13.9353C17.5991 13.9458 17.6116 13.9541 17.6253 13.9597C17.6395 13.9658 17.6549 13.9689 17.6703 13.9687M17.6703 13.7078C17.7099 13.7078 17.7479 13.7233 17.7761 13.751C17.7897 13.7643 17.8005 13.7802 17.8079 13.7977C17.8156 13.8157 17.8196 13.835 17.8196 13.8546C17.8196 13.8742 17.8156 13.8935 17.8079 13.9115C17.8003 13.9289 17.7895 13.9448 17.7761 13.9582C17.7623 13.9714 17.7462 13.9821 17.7287 13.9897C17.7102 13.9975 17.6904 14.0015 17.6703 14.0014C17.6501 14.0015 17.63 13.9976 17.6113 13.9897C17.5935 13.9823 17.5773 13.9716 17.5635 13.9582C17.5501 13.9443 17.5394 13.9279 17.5321 13.91C17.5244 13.892 17.5204 13.8726 17.5204 13.8531C17.5204 13.8335 17.5244 13.8141 17.5321 13.7962C17.5395 13.7786 17.5503 13.7628 17.5639 13.7495C17.5776 13.7358 17.5938 13.7251 17.6117 13.718C17.6304 13.7101 17.6505 13.7061 17.6708 13.7063M3.88953 13.1821C3.88953 12.9225 4.05963 12.7093 4.33764 12.7093C4.60332 12.7093 4.7826 12.9133 4.7826 13.1821C4.7826 13.4508 4.60332 13.6549 4.33764 13.6549C4.05963 13.6549 3.88953 13.4417 3.88953 13.1821ZM5.08545 13.1821V12.4434H4.76424V12.6233C4.66236 12.4904 4.50783 12.407 4.29768 12.407C3.88368 12.407 3.55878 12.7316 3.55878 13.1824C3.55878 13.6333 3.8835 13.9579 4.29768 13.9579C4.50774 13.9579 4.66236 13.8744 4.76424 13.7415V13.9209H5.08509V13.1821H5.08545ZM15.9387 13.1821C15.9387 12.9225 16.1088 12.7093 16.3869 12.7093C16.6529 12.7093 16.8319 12.9133 16.8319 13.1821C16.8319 13.4508 16.6529 13.6549 16.3869 13.6549C16.1089 13.6549 15.9387 13.4417 15.9387 13.1821ZM17.135 13.1821V11.8505H16.8135V12.6233C16.7117 12.4904 16.5571 12.407 16.347 12.407C15.933 12.407 15.6081 12.7316 15.6081 13.1824C15.6081 13.6333 15.9328 13.9579 16.347 13.9579C16.5571 13.9579 16.7117 13.8744 16.8135 13.7415V13.9209H17.135V13.1821ZM9.07209 12.6941C9.27909 12.6941 9.41202 12.8238 9.44595 13.0523H8.67951C8.7138 12.839 8.84331 12.6941 9.07218 12.6941M9.07857 12.4061C8.64567 12.4061 8.34282 12.7211 8.34282 13.1816C8.34282 13.6512 8.65782 13.9571 9.10008 13.9571C9.32256 13.9571 9.52632 13.9016 9.7056 13.7502L9.54819 13.5122C9.42435 13.6112 9.26667 13.6667 9.11844 13.6667C8.91144 13.6667 8.72298 13.5709 8.67663 13.305H9.77346C9.77661 13.265 9.77985 13.2247 9.77985 13.1815C9.77661 12.7211 9.49185 12.4061 9.07839 12.4061M12.9565 13.1815C12.9565 12.922 13.1266 12.7087 13.4046 12.7087C13.6703 12.7087 13.8496 12.9128 13.8496 13.1815C13.8496 13.4503 13.6703 13.6544 13.4046 13.6544C13.1266 13.6544 12.9564 13.4411 12.9564 13.1815M14.1523 13.1815V12.4434H13.8313V12.6233C13.729 12.4904 13.5749 12.407 13.3647 12.407C12.9507 12.407 12.6258 12.7316 12.6258 13.1824C12.6258 13.6333 12.9505 13.9579 13.3647 13.9579C13.5749 13.9579 13.729 13.8744 13.8313 13.7415V13.9209H14.1524V13.1821L14.1523 13.1815ZM11.1425 13.1815C11.1425 13.6295 11.4545 13.957 11.9306 13.957C12.1531 13.957 12.3013 13.9075 12.4616 13.781L12.3073 13.5214C12.1867 13.608 12.0601 13.6544 11.9203 13.6544C11.6639 13.6512 11.4754 13.4659 11.4754 13.1815C11.4754 12.8972 11.6639 12.712 11.9203 12.7087C12.0597 12.7087 12.1864 12.7551 12.3073 12.8417L12.4616 12.5821C12.301 12.4555 12.1528 12.4061 11.9306 12.4061C11.4545 12.4061 11.1425 12.7335 11.1425 13.1815ZM15.2834 12.4061C15.0981 12.4061 14.9774 12.4927 14.894 12.6224V12.4434H14.5757V13.9201H14.8972V13.0923C14.8972 12.8479 15.0023 12.7121 15.2122 12.7121C15.281 12.7112 15.3493 12.7238 15.4131 12.7493L15.5121 12.4466C15.441 12.4187 15.3483 12.4063 15.2833 12.4063M6.6735 12.5608C6.51897 12.459 6.30603 12.4063 6.07113 12.4063C5.69691 12.4063 5.45598 12.5856 5.45598 12.8791C5.45598 13.1198 5.63535 13.2684 5.96565 13.3147L6.11739 13.3363C6.29352 13.361 6.37668 13.4074 6.37668 13.4908C6.37668 13.605 6.25968 13.6701 6.03999 13.6701C5.81751 13.6701 5.65695 13.599 5.54868 13.5156L5.39775 13.766C5.57388 13.8958 5.79636 13.9577 6.03729 13.9577C6.46389 13.9577 6.71112 13.7568 6.71112 13.4757C6.71112 13.2161 6.51654 13.0803 6.19506 13.034L6.04368 13.012C5.90463 12.994 5.79321 12.9661 5.79321 12.8671C5.79321 12.7591 5.89824 12.6942 6.07446 12.6942C6.26301 12.6942 6.44553 12.7652 6.53499 12.8207L6.67404 12.5612L6.6735 12.5608ZM10.8181 12.4066C10.6328 12.4066 10.5121 12.4932 10.429 12.623V12.4434H10.1107V13.9201H10.4319V13.0923C10.4319 12.8479 10.5369 12.7121 10.7469 12.7121C10.8157 12.7112 10.8839 12.7238 10.9478 12.7493L11.0468 12.4466C10.9757 12.4187 10.883 12.4063 10.8179 12.4063M8.07705 12.4434H7.55181V11.9954H7.22709V12.4434H6.92748V12.7369H7.22709V13.4105C7.22709 13.7532 7.36011 13.9572 7.74009 13.9572C7.8795 13.9572 8.04006 13.914 8.14194 13.843L8.04915 13.5681C7.9533 13.6236 7.84827 13.6516 7.76475 13.6516C7.60419 13.6516 7.55181 13.5526 7.55181 13.4044V12.7372H8.07705V12.4434ZM3.27474 13.9204V12.9937C3.27474 12.6447 3.05226 12.4098 2.69361 12.4067C2.50506 12.4035 2.31057 12.4622 2.1744 12.6694C2.07252 12.5057 1.91196 12.4067 1.68624 12.4067C1.52847 12.4067 1.3743 12.453 1.25361 12.626V12.4434H0.932129V13.9201H1.25613V13.1013C1.25613 12.8449 1.39833 12.7087 1.61793 12.7087C1.83123 12.7087 1.93914 12.8477 1.93914 13.098V13.9199H2.26386V13.1011C2.26386 12.8448 2.41209 12.7085 2.6253 12.7085C2.84463 12.7085 2.9493 12.8476 2.9493 13.0979V13.9197L3.27474 13.9204Z" fill="#231F20"/>
<path id="Vector_2" d="M17.8284 9.00842V8.79248H17.7722L17.7071 8.94067L17.6424 8.79248H17.586V9.00842H17.6259V8.84575L17.6868 8.98611H17.7282L17.789 8.84539V9.00842H17.8286H17.8284ZM17.4716 9.00842V8.82946H17.5436V8.79302H17.3596V8.82946H17.4316V9.00842H17.4712H17.4716Z" fill="#F79410"/>
<path id="Vector_3" d="M11.4351 9.93447H6.56738V1.18896H11.4352L11.4351 9.93447Z" fill="#FF5F00"/>
<path id="Vector_4" d="M6.876 5.56182C6.876 3.7878 7.70688 2.20749 9.00072 1.18907C8.02135 0.417047 6.81002 -0.00195833 5.56281 -0.000116021C2.49048 -0.000116021 0 2.49001 0 5.56182C0 8.63364 2.49048 11.1238 5.56281 11.1238C6.81005 11.1256 8.02141 10.7066 9.00081 9.93458C7.70706 8.91634 6.876 7.33594 6.876 5.56182Z" fill="#EB001B"/>
<path id="Vector_5" d="M18.0022 5.56195C18.0022 8.63376 15.5118 11.1239 12.4394 11.1239C11.1921 11.1257 9.98056 10.7067 9.00098 9.9347C10.2952 8.91628 11.1261 7.33606 11.1261 5.56195C11.1261 3.78783 10.2952 2.20762 9.00098 1.1892C9.98053 0.417192 11.192 -0.00180397 12.4393 5.83839e-06C15.5117 5.83839e-06 18.0021 2.49013 18.0021 5.56195" fill="#F79E1B"/>
</g>
<defs>
<clipPath id="clip0_2775_6044">
<rect width="18" height="14" fill="white"/>
</clipPath>
</defs>
</svg>
