{
	"asset":{
		"generator":"Khronos glTF Blender I/O v3.6.27",
		"version":"2.0"
	},
	"extensionsUsed":[
		"KHR_materials_specular",
		"KHR_materials_ior"
	],
	"scene":0,
	"scenes":[
		{
			"name":"Scene",
			"nodes":[
				0,
				1
			]
		}
	],
	"nodes":[
		{
			"camera":0,
			"name":"Camera",
			"rotation":[
				-0.02243598736822605,
				0.6993222832679749,
				0.021974332630634308,
				0.7141163945198059
			],
			"translation":[
				21.199424743652344,
				7.802581787109375,
				0.5760094523429871
			]
		},
		{
			"mesh":0,
			"name":"Cylinder.012",
			"scale":[
				0.4823343753814697,
				0.4823343753814697,
				0.4823343753814697
			],
			"translation":[
				0.012954294681549072,
				8.461349487304688,
				0.017206549644470215
			]
		}
	],
	"cameras":[
		{
			"name":"Camera",
			"perspective":{
				"aspectRatio":0.5625,
				"yfov":0.691111147403717,
				"zfar":1000,
				"znear":0.10000000149011612
			},
			"type":"perspective"
		}
	],
	"materials":[
		{
			"doubleSided":true,
			"extensions":{
				"KHR_materials_specular":{
					"specularColorFactor":[
						2.371357614441398,
						2.371357614441398,
						2.371357614441398
					]
				},
				"KHR_materials_ior":{
					"ior":1.4500000476837158
				}
			},
			"name":"Material",
			"pbrMetallicRoughness":{
				"baseColorFactor":[
					0.7879856824874878,
					0.8000000715255737,
					0.8000000715255737,
					1
				],
				"metallicFactor":0.036363635212183,
				"roughnessFactor":0.40291261672973633
			}
		}
	],
	"meshes":[
		{
			"name":"Cylinder.013",
			"primitives":[
				{
					"attributes":{
						"POSITION":0,
						"NORMAL":1,
						"TEXCOORD_0":2,
						"TEXCOORD_1":3
					},
					"indices":4,
					"material":0
				}
			]
		}
	],
	"accessors":[
		{
			"bufferView":0,
			"componentType":5126,
			"count":3932,
			"max":[
				0.9553418755531311,
				8.646289825439453,
				0.9553419947624207
			],
			"min":[
				-0.9553419947624207,
				-17.511960983276367,
				-0.9553418755531311
			],
			"type":"VEC3"
		},
		{
			"bufferView":1,
			"componentType":5126,
			"count":3932,
			"type":"VEC3"
		},
		{
			"bufferView":2,
			"componentType":5126,
			"count":3932,
			"type":"VEC2"
		},
		{
			"bufferView":3,
			"componentType":5126,
			"count":3932,
			"type":"VEC2"
		},
		{
			"bufferView":4,
			"componentType":5123,
			"count":19008,
			"type":"SCALAR"
		}
	],
	"bufferViews":[
		{
			"buffer":0,
			"byteLength":47184,
			"byteOffset":0,
			"target":34962
		},
		{
			"buffer":0,
			"byteLength":47184,
			"byteOffset":47184,
			"target":34962
		},
		{
			"buffer":0,
			"byteLength":31456,
			"byteOffset":94368,
			"target":34962
		},
		{
			"buffer":0,
			"byteLength":31456,
			"byteOffset":125824,
			"target":34962
		},
		{
			"buffer":0,
			"byteLength":38016,
			"byteOffset":157280,
			"target":34963
		}
	],
	"buffers":[
		{
			"byteLength":195296,
			"uri":"data:application/octet-stream;base64,"
		}
	]
}
