{
    "asset" : {
        "generator" : "Khronos glTF Blender I/O v3.2.43",
        "version" : "2.0"
    },
    "scene" : 0,
    "scenes" : [
        {
            "name" : "Scene",
            "nodes" : [
                0
            ]
        }
    ],
    "nodes" : [
        {
            "mesh" : 0,
            "name" : "Cylinder.005",
            "scale" : [
                0.7872126698493958,
                0.7872126698493958,
                0.7872126698493958
            ],
            "translation" : [
                0,
                6.238759994506836,
                0
            ]
        }
    ],
    "meshes" : [
        {
            "name" : "Cylinder.003",
            "primitives" : [
                {
                    "attributes" : {
                        "POSITION" : 0,
                        "NORMAL" : 1,
                        "TEXCOORD_0" : 2
                    },
                    "indices" : 3
                }
            ]
        }
    ],
    "accessors" : [
        {
            "bufferView" : 0,
            "componentType" : 5126,
            "count" : 3210,
            "max" : [
                0.9553419947624207,
                1.9617997407913208,
                0.9553419947624207
            ],
            "min" : [
                -0.9553419947624207,
                -7.911359786987305,
                -0.9553418755531311
            ],
            "type" : "VEC3"
        },
        {
            "bufferView" : 1,
            "componentType" : 5126,
            "count" : 3210,
            "type" : "VEC3"
        },
        {
            "bufferView" : 2,
            "componentType" : 5126,
            "count" : 3210,
            "type" : "VEC2"
        },
        {
            "bufferView" : 3,
            "componentType" : 5123,
            "count" : 16704,
            "type" : "SCALAR"
        }
    ],
    "bufferViews" : [
        {
            "buffer" : 0,
            "byteLength" : 38520,
            "byteOffset" : 0
        },
        {
            "buffer" : 0,
            "byteLength" : 38520,
            "byteOffset" : 38520
        },
        {
            "buffer" : 0,
            "byteLength" : 25680,
            "byteOffset" : 77040
        },
        {
            "buffer" : 0,
            "byteLength" : 33408,
            "byteOffset" : 102720
        }
    ],
    "buffers" : [
        {
            "byteLength" : 136128,
            "uri" : "data:application/octet-stream;base64,"
        }
    ]
}
