{
    "asset" : {
        "generator" : "Khronos glTF Blender I/O v3.2.43",
        "version" : "2.0"
    },
    "scene" : 0,
    "scenes" : [
        {
            "name" : "Scene",
            "nodes" : [
                0
            ]
        }
    ],
    "nodes" : [
        {
            "mesh" : 0,
            "name" : "Cylinder.019",
            "scale" : [
                2.3496060371398926,
                2.3496060371398926,
                2.3496060371398926
            ],
            "translation" : [
                0,
                2.3657498359680176,
                0
            ]
        }
    ],
    "meshes" : [
        {
            "name" : "Cylinder",
            "primitives" : [
                {
                    "attributes" : {
                        "POSITION" : 0,
                        "NORMAL" : 1,
                        "TEXCOORD_0" : 2
                    },
                    "indices" : 3
                }
            ]
        }
    ],
    "accessors" : [
        {
            "bufferView" : 0,
            "componentType" : 5126,
            "count" : 3806,
            "max" : [
                0.9553419947624207,
                1.3230650424957275,
                0.9553419947624207
            ],
            "min" : [
                -0.9553419947624207,
                -1.0000003576278687,
                -0.9553418755531311
            ],
            "type" : "VEC3"
        },
        {
            "bufferView" : 1,
            "componentType" : 5126,
            "count" : 3806,
            "type" : "VEC3"
        },
        {
            "bufferView" : 2,
            "componentType" : 5126,
            "count" : 3806,
            "type" : "VEC2"
        },
        {
            "bufferView" : 3,
            "componentType" : 5123,
            "count" : 20160,
            "type" : "SCALAR"
        }
    ],
    "bufferViews" : [
        {
            "buffer" : 0,
            "byteLength" : 45672,
            "byteOffset" : 0
        },
        {
            "buffer" : 0,
            "byteLength" : 45672,
            "byteOffset" : 45672
        },
        {
            "buffer" : 0,
            "byteLength" : 30448,
            "byteOffset" : 91344
        },
        {
            "buffer" : 0,
            "byteLength" : 40320,
            "byteOffset" : 121792
        }
    ],
    "buffers" : [
        {
            "byteLength" : 162112,
            "uri" : "data:application/octet-stream;base64,"
        }
    ]
}
