{
    "asset" : {
        "generator" : "Khronos glTF Blender I/O v3.2.43",
        "version" : "2.0"
    },
    "scene" : 0,
    "scenes" : [
        {
            "name" : "Scene",
            "nodes" : [
                0
            ]
        }
    ],
    "nodes" : [
        {
            "mesh" : 0,
            "name" : "Cylinder.002",
            "scale" : [
                1.4880768060684204,
                1.4880768060684204,
                1.4880768060684204
            ],
            "translation" : [
                0,
                1.8376857042312622,
                0
            ]
        }
    ],
    "meshes" : [
        {
            "name" : "Cylinder.010",
            "primitives" : [
                {
                    "attributes" : {
                        "POSITION" : 0,
                        "NORMAL" : 1,
                        "TEXCOORD_0" : 2
                    },
                    "indices" : 3
                }
            ]
        }
    ],
    "accessors" : [
        {
            "bufferView" : 0,
            "componentType" : 5126,
            "count" : 3601,
            "max" : [
                0.9553419947624207,
                1.355940580368042,
                0.9553419947624207
            ],
            "min" : [
                -0.9553419947624207,
                -1.225917935371399,
                -0.9553418755531311
            ],
            "type" : "VEC3"
        },
        {
            "bufferView" : 1,
            "componentType" : 5126,
            "count" : 3601,
            "type" : "VEC3"
        },
        {
            "bufferView" : 2,
            "componentType" : 5126,
            "count" : 3601,
            "type" : "VEC2"
        },
        {
            "bufferView" : 3,
            "componentType" : 5123,
            "count" : 19008,
            "type" : "SCALAR"
        }
    ],
    "bufferViews" : [
        {
            "buffer" : 0,
            "byteLength" : 43212,
            "byteOffset" : 0
        },
        {
            "buffer" : 0,
            "byteLength" : 43212,
            "byteOffset" : 43212
        },
        {
            "buffer" : 0,
            "byteLength" : 28808,
            "byteOffset" : 86424
        },
        {
            "buffer" : 0,
            "byteLength" : 38016,
            "byteOffset" : 115232
        }
    ],
    "buffers" : [
        {
            "byteLength" : 153248,
            "uri" : "data:application/octet-stream;base64,"
        }
    ]
}
