{
    "asset" : {
        "generator" : "Khronos glTF Blender I/O v3.2.43",
        "version" : "2.0"
    },
    "scene" : 0,
    "scenes" : [
        {
            "name" : "Scene",
            "nodes" : [
                0
            ]
        }
    ],
    "nodes" : [
        {
            "mesh" : 0,
            "name" : "Cylinder.004",
            "scale" : [
                0.4823343753814697,
                0.4823343753814697,
                0.4823343753814697
            ],
            "translation" : [
                0,
                8.461349487304688,
                0
            ]
        }
    ],
    "meshes" : [
        {
            "name" : "Cylinder.012",
            "primitives" : [
                {
                    "attributes" : {
                        "POSITION" : 0,
                        "NORMAL" : 1,
                        "TEXCOORD_0" : 2
                    },
                    "indices" : 3
                }
            ]
        }
    ],
    "accessors" : [
        {
            "bufferView" : 0,
            "componentType" : 5126,
            "count" : 3613,
            "max" : [
                0.9553419947624207,
                2.1986353397369385,
                0.9553419947624207
            ],
            "min" : [
                -0.9553419947624207,
                -17.511960983276367,
                -0.9553418755531311
            ],
            "type" : "VEC3"
        },
        {
            "bufferView" : 1,
            "componentType" : 5126,
            "count" : 3613,
            "type" : "VEC3"
        },
        {
            "bufferView" : 2,
            "componentType" : 5126,
            "count" : 3613,
            "type" : "VEC2"
        },
        {
            "bufferView" : 3,
            "componentType" : 5123,
            "count" : 19008,
            "type" : "SCALAR"
        }
    ],
    "bufferViews" : [
        {
            "buffer" : 0,
            "byteLength" : 43356,
            "byteOffset" : 0
        },
        {
            "buffer" : 0,
            "byteLength" : 43356,
            "byteOffset" : 43356
        },
        {
            "buffer" : 0,
            "byteLength" : 28904,
            "byteOffset" : 86712
        },
        {
            "buffer" : 0,
            "byteLength" : 38016,
            "byteOffset" : 115616
        }
    ],
    "buffers" : [
        {
            "byteLength" : 153632,
            "uri" : "data:application/octet-stream;base64,"
        }
    ]
}
