<svg width="24" height="24" viewBox="0 0 24 24" fill="none" xmlns="http://www.w3.org/2000/svg">
<path d="M18.5949 5H5.40511C3.80426 5 3 5.85246 3 7.54098V8.30328H21V7.54098C21 5.85246 20.2034 5 18.5949 5ZM6.13277 16.459C5.68085 16.459 5.38213 16.1311 5.38213 15.6721V14.1557C5.38213 13.6885 5.68085 13.3689 6.13277 13.3689H8.00936C8.46128 13.3689 8.76 13.6885 8.76 14.1557V15.6721C8.76 16.1311 8.46128 16.459 8.00936 16.459H6.13277ZM5.40511 19H18.5949C20.2034 19 21 18.1557 21 16.4672V10.1639H3V16.4672C3 18.1557 3.80426 19 5.40511 19Z" fill="black"/>
</svg>
