<svg width="16" height="16" viewBox="0 0 16 16" fill="none" xmlns="http://www.w3.org/2000/svg">
<g id="Globe">
<g clip-path="url(#clip0_2775_6029)">
<circle id="Ellipse 5" cx="8" cy="8" r="7.65" stroke="black" stroke-width="0.7"/>
<path id="Ellipse 6" d="M12.8264 8C12.8264 10.1517 12.2614 12.0835 11.3664 13.4667C10.4692 14.8534 9.27102 15.65 7.99996 15.65C6.72889 15.65 5.53074 14.8534 4.63349 13.4667C3.73849 12.0835 3.17349 10.1517 3.17349 8C3.17349 5.84826 3.73849 3.91646 4.63349 2.53328C5.53074 1.14662 6.72889 0.35 7.99996 0.35C9.27102 0.35 10.4692 1.14662 11.3664 2.53328C12.2614 3.91646 12.8264 5.84826 12.8264 8Z" stroke="black" stroke-width="0.7"/>
<path id="Line 4" d="M8 0.470581L8 16" stroke="black" stroke-width="0.7"/>
<path id="Line 5" d="M0.235352 8.23535L15.7648 8.23535" stroke="black" stroke-width="0.7"/>
<path id="Ellipse 7" d="M14.7088 0.470645C14.7088 1.46895 14.0326 2.43254 12.8113 3.16533C11.5969 3.89394 9.8967 4.35594 7.99999 4.35594C6.10327 4.35594 4.40307 3.89394 3.18872 3.16533C1.9674 2.43254 1.29116 1.46895 1.29116 0.470645C1.29116 -0.527658 1.9674 -1.49125 3.18872 -2.22404C4.40307 -2.95265 6.10327 -3.41465 7.99999 -3.41465C9.8967 -3.41465 11.5969 -2.95265 12.8113 -2.22404C14.0326 -1.49125 14.7088 -0.527658 14.7088 0.470645Z" stroke="black" stroke-width="0.7"/>
<path id="Ellipse 8" d="M14.7088 15.5294C14.7088 16.5277 14.0326 17.4913 12.8113 18.224C11.5969 18.9527 9.8967 19.4147 7.99999 19.4147C6.10327 19.4147 4.40307 18.9527 3.18872 18.224C1.9674 17.4913 1.29116 16.5277 1.29116 15.5294C1.29116 14.5311 1.9674 13.5675 3.18872 12.8347C4.40307 12.1061 6.10327 11.6441 7.99999 11.6441C9.8967 11.6441 11.5969 12.1061 12.8113 12.8347C14.0326 13.5675 14.7088 14.5311 14.7088 15.5294Z" stroke="black" stroke-width="0.7"/>
</g>
</g>
<defs>
<clipPath id="clip0_2775_6029">
<rect width="16" height="16" rx="8" fill="white"/>
</clipPath>
</defs>
</svg>
