<svg width="30" height="10" viewBox="0 0 30 10" fill="none" xmlns="http://www.w3.org/2000/svg">
<g id="Visa_Inc-OdftkRHIe_brandlogos.net 1" clip-path="url(#clip0_2775_6050)">
<path id="Vector" d="M19.5402 -0.000179295C17.4098 -0.000179295 15.5063 1.13554 15.5063 3.23435C15.5063 5.64149 18.8818 5.80696 18.8818 7.01649C18.8818 7.52601 18.3148 7.98077 17.3462 7.98077C16.5067 7.97514 15.6815 7.75636 14.9439 7.34387L14.5041 9.46172C15.3819 9.81792 16.317 10.0005 17.2606 9.99982C19.59 9.99982 21.4264 8.80934 21.4264 6.67363C21.4264 4.13077 18.0359 3.96887 18.0359 2.84744C18.0359 2.44863 18.4987 2.01411 19.4673 2.01411C20.1512 2.02351 20.8255 2.18131 21.4461 2.4772L21.8766 0.431964C21.1305 0.140191 20.3383 -0.00634736 19.5402 -0.000179295ZM0.0520747 0.154581L0 0.462918C0.581174 0.579059 1.1512 0.747973 1.70338 0.967678C2.74484 1.35339 2.81659 1.57839 2.99132 2.2772L4.89836 9.84149H7.45574L11.3902 0.154581H8.84436L6.3136 6.7403L5.28023 1.15816C5.18534 0.51887 4.70164 0.154581 4.12305 0.154581H0.0520747ZM12.4201 0.154581L10.4193 9.84149H12.8494L14.8432 0.154581H12.4131H12.4201ZM25.9869 0.154581C25.4002 0.154581 25.0901 0.477203 24.8621 1.04268L21.298 9.84149H23.8438L24.3367 8.37482H27.4438L27.7435 9.84149H29.9942L28.027 0.154581H25.9869ZM26.319 2.77363L27.0746 6.40816H25.0496L26.3225 2.77363H26.319Z" fill="#1434CB"/>
</g>
<defs>
<clipPath id="clip0_2775_6050">
<rect width="30" height="10" fill="white"/>
</clipPath>
</defs>
</svg>
